<?xml version="1.0" encoding="UTF-8" standalone="no"?>
<svg
   version="1.1"
   viewBox="-5 -10 90 90"
   id="svg3"
   sodipodi:docname="check-favicon.svg"
   width="90"
   height="90"
   inkscape:version="1.3.2 (091e20e, 2023-11-25)"
   xmlns:inkscape="http://www.inkscape.org/namespaces/inkscape"
   xmlns:sodipodi="http://sodipodi.sourceforge.net/DTD/sodipodi-0.dtd"
   xmlns="http://www.w3.org/2000/svg"
   xmlns:svg="http://www.w3.org/2000/svg">
  <defs
     id="defs3" />
  <sodipodi:namedview
     id="namedview3"
     pagecolor="#ffffff"
     bordercolor="#666666"
     borderopacity="1.0"
     inkscape:showpageshadow="2"
     inkscape:pageopacity="0.0"
     inkscape:pagecheckerboard="0"
     inkscape:deskcolor="#d1d1d1"
     inkscape:zoom="4.9445096"
     inkscape:cx="57.437445"
     inkscape:cy="62.898048"
     inkscape:window-width="1440"
     inkscape:window-height="819"
     inkscape:window-x="0"
     inkscape:window-y="25"
     inkscape:window-maximized="0"
     inkscape:current-layer="svg3" />
  <path
     d="m 38.486258,72.520496 c 21.082,0 38.227,-17.145 38.227,-38.227 0,-4.3281 -0.73047,-8.4766 -2.0586,-12.355 -0.83594,0.80469 -1.6719,1.6328 -2.5,2.457 -7.9453,7.9766 -15.398,16.766 -22.223,26.289 -1.6953,2.3516 -4.2031,3.9102 -7.0664,4.3906 -0.58594,0.09375 -1.1914,0.14844 -1.7891,0.14844 -2.2695,0 -4.4531,-0.71094 -6.3125,-2.0469 -1.2109,-0.82422 -2.0586,-1.8828 -2.5938,-2.5938 -4.9219,-6.7109 -9.7109,-11.539 -14.633,-14.781 -5.9492,-4.1797 -6.0508,-10.871 -3.1133,-15.336 2.9375,-4.4531 9.082,-7.0156 15.168,-3.2812 4.2422,2.8008 8.1758,6.1172 11.988,10.109 6.6602,-6.7305 13.633,-12.973 20.824,-18.6480003 0.83594,-0.66016 1.6719,-1.2969 2.5078,-1.9453 -6.8672,-6.57419997 -16.18,-10.633 -26.426,-10.633 -21.074,0 -38.22700036,17.1450003 -38.22700036,38.2270003 0,21.086 17.15200036,38.227 38.22700036,38.227 z"
     id="path1"
     style="fill:#f9fafb;fill-opacity:1;stroke:#d1d5db;stroke-opacity:1;stroke-width:2;stroke-dasharray:none" />
  <path
     d="m 41.486258,33.340496 c -4.5156,-5.2266 -9.125,-9.3555 -14.07,-12.629 -3.8242,-2.3516 -7.6953,-0.75 -9.5312,2.0273 -1.8281,2.8008 -1.7773,6.9805 1.9453,9.5859 5.332,3.5117 10.465,8.6758 15.68,15.773 0.38672,0.52344 0.92969,1.1914 1.6719,1.7031 1.1602,0.82422 2.5078,1.2656 3.9102,1.2656 0.36719,0 0.73047,-0.03125 1.0977,-0.09375 1.7773,-0.29297 3.3242,-1.2539 4.3789,-2.7188 9.6289,-13.434 20.469,-25.473 32.207,-35.801 1.6836,-1.4844 1.9766,-3.9844003 0.67969,-5.8125003 -0.67969,-0.94922 -1.6836,-1.5781 -2.832,-1.7773 -1.1484,-0.19922 -2.3086,0.07422 -3.2617,0.74219 -11.176,7.9336003 -21.891,17.2580003 -31.871,27.7340003 z"
     id="path2"
     style="fill:#2563eb;fill-opacity:1" />
</svg>
